<svg width="29.333191" height="25.783798" viewBox="0 0 29.3332 25.7838" fill="none" xmlns="http://www.w3.org/2000/svg" xmlns:xlink="http://www.w3.org/1999/xlink">
	<desc>
			Created with Pixso.
	</desc>
	<defs/>
	<path id="Vector" d="M11.0693 20.0791L11.0693 25.7838L0.830505 25.7838L0.830505 18.3519L10.5821 19.5295C10.86 19.563 11.0693 19.7989 11.0693 20.0791ZM7.90833 13.2761L6.24341 13.2761C5.89935 12.2883 4.98322 11.3877 3.97516 11.0927C3.46844 11.5994 3.02869 12.7873 3.0816 13.5663C3.66382 13.9423 4.71307 14.3581 5.50702 14.5238L5.50702 14.7153L0 14.7153L0 17.4825L11.0693 17.4825L11.0693 15.2687C11.0693 14.9629 10.8218 14.7153 10.5159 14.7153L8.64392 14.7153L8.64392 14.5238C9.43787 14.3581 10.4879 13.9423 11.0693 13.5663C11.1223 12.7873 10.6833 11.5994 10.1766 11.0927C9.16779 11.3877 8.25159 12.2883 7.90833 13.2761ZM29.3332 25.7838L12.7296 25.7838L14.3899 6.41309L16.3817 6.41309L17.2194 8.84941L17.3859 8.84941L17.3859 3.64594C17.3859 1.63615 19.0214 0 21.0311 0C23.0416 0 24.6769 1.63615 24.6769 3.64594L24.6769 6.41309L27.6729 6.41309L29.3332 25.7838ZM18.2156 3.64594L18.2156 6.41309L22.8431 6.41309L23.6815 8.84941L23.8472 8.84941L23.8472 3.64594C23.8472 2.09386 22.5839 0.830536 21.0311 0.830536C19.4789 0.830536 18.2156 2.09386 18.2156 3.64594ZM26.7311 15.6097L24.9821 11.8578C24.9152 11.7146 24.7946 11.6041 24.6467 11.5503L22.1277 10.6335C21.8188 10.5214 21.4771 10.6802 21.3649 10.9891L20.448 13.5081C20.3936 13.6567 20.4013 13.8202 20.4675 13.9634L22.2173 17.7143C22.3559 18.0125 22.71 18.141 23.0081 18.0023L26.4431 16.4005C26.7412 16.2611 26.8704 15.9078 26.7311 15.6097ZM22.387 12.1855C22.1099 12.3147 21.99 12.6441 22.1192 12.9211C22.2484 13.1982 22.5778 13.3181 22.8548 13.1889C23.1318 13.0597 23.2517 12.7305 23.1226 12.4533C22.9933 12.1762 22.6641 12.0563 22.387 12.1855Z" fill="#F3C90D" fill-opacity="1.000000" fill-rule="evenodd"/>
</svg>
